<svg id="Layer_1" data-name="Layer 1" xmlns="http://www.w3.org/2000/svg" viewBox="0 0 181 181"><defs><style>.cls-1{fill:#3060ab;}.cls-2{fill:#fff;}</style></defs><path class="cls-1" d="M181,110.82q0,20.85-3.73,34.4t-11.35,21.53a40.46,40.46,0,0,1-19.35,11.12q-11.7,3.13-28,3.13H55.36q-16.32,0-27-5.73a47.87,47.87,0,0,1-17-14.94,57,57,0,0,1-8.88-20.85A113.93,113.93,0,0,1,0,115.69V54.54A55.29,55.29,0,0,1,4.44,32,53,53,0,0,1,16.32,14.77,51.48,51.48,0,0,1,33.89,3.82,60.17,60.17,0,0,1,55.36,0h71.69A57.59,57.59,0,0,1,146.4,3.47a52.78,52.78,0,0,1,17.39,10.25,54.11,54.11,0,0,1,12.42,16.33A48.63,48.63,0,0,1,181,52.11Z"/><path class="cls-2" d="M130.27,42.6V30A19.08,19.08,0,0,0,111.21,11H69.79A19.08,19.08,0,0,0,50.73,30V42.6H22.85v89.28a25.7,25.7,0,0,0,25.7,25.69h83.9a25.7,25.7,0,0,0,25.7-25.69V42.6ZM57.5,30A12.3,12.3,0,0,1,69.79,17.73h41.42A12.3,12.3,0,0,1,123.5,30V42.6h-66Z"/><path class="cls-1" d="M120.26,126.62l-5.11-2.3-16-7.24v7.24H86.76c-1.57,0-2.34-.47-2.34-1.4a3.25,3.25,0,0,1,1.48-2.28l48-39.37a13.08,13.08,0,0,0,3.62-4.54,14.1,14.1,0,0,0,1.29-6.3q0-8-4.7-12c-3.14-2.63-8.89-3.93-17.29-3.93h-70c-1.43,0-2.14.59-2.14,1.75V74.1c0,1.17.71,1.75,2.14,1.75H95.51c2.43,0,3.64.53,3.64,1.57A2.06,2.06,0,0,1,98.29,79L49,119.25a23.12,23.12,0,0,0-5,5.5A11.47,11.47,0,0,0,42.14,131a12.72,12.72,0,0,0,5.22,10.75q5.24,3.94,18.69,3.95H99.13v7.23l16-7.23,5.13-2.32,17.74-8,.78-.35-.78-.35Z"/></svg>