<svg id="Layer_1" data-name="Layer 1" xmlns="http://www.w3.org/2000/svg" viewBox="0 0 650.29 133.59"><defs><style>.cls-1{fill:#00161c;}.cls-2{fill:#2d4ab6;}.cls-3{fill:#fff;}</style></defs><path class="cls-1" d="M334.31,540.71q-8.13,0-11.3-2.9a10.26,10.26,0,0,1-3.16-7.95,9.88,9.88,0,0,1,1.09-4.58,16.67,16.67,0,0,1,3-4.07l29.83-29.7a1.62,1.62,0,0,0,.52-1.16c0-.78-.74-1.16-2.2-1.16H322.69a1.14,1.14,0,0,1-1.29-1.29V474.73a1.15,1.15,0,0,1,1.29-1.3H365q7.62,0,10.46,2.91c1.9,1.94,2.84,4.89,2.84,8.84a12.44,12.44,0,0,1-.77,4.65,9.85,9.85,0,0,1-2.2,3.36l-29.05,29.06a2.51,2.51,0,0,0-.9,1.67c0,.69.47,1,1.42,1h29.7a1.14,1.14,0,0,1,1.29,1.29v13.17a1.14,1.14,0,0,1-1.29,1.29Z" transform="translate(-174.86 -433.2)"/><path class="cls-1" d="M450.92,514.63a50,50,0,0,1-1.36,12.78,18.53,18.53,0,0,1-4.13,8,14.66,14.66,0,0,1-7,4.13,39.35,39.35,0,0,1-10.2,1.16h-23a20.19,20.19,0,0,1-9.81-2.13,17.63,17.63,0,0,1-6.2-5.55,21.34,21.34,0,0,1-3.23-7.75,43.28,43.28,0,0,1-.9-8.85V493.71a21.15,21.15,0,0,1,1.61-8.4,19.88,19.88,0,0,1,4.33-6.39,18.82,18.82,0,0,1,6.39-4.07,21.69,21.69,0,0,1,7.81-1.42h26.09a20.57,20.57,0,0,1,7,1.3,19.12,19.12,0,0,1,6.32,3.8,19.91,19.91,0,0,1,4.52,6.07,18.29,18.29,0,0,1,1.75,8.2Zm-15.89-19a4.38,4.38,0,0,0-1-2.77,8.09,8.09,0,0,0-2.52-2.07,12.42,12.42,0,0,0-3.49-1.23,20.3,20.3,0,0,0-3.87-.38H410.11a18.2,18.2,0,0,0-3.36.32,9.76,9.76,0,0,0-3,1.1,7,7,0,0,0-2.26,2.06,5.32,5.32,0,0,0-.9,3.1v20.66a7.67,7.67,0,0,0,1.09,4.27,8.06,8.06,0,0,0,2.78,2.64,10.68,10.68,0,0,0,3.62,1.3,22.55,22.55,0,0,0,3.61.32h11.88a14.56,14.56,0,0,0,8.07-2.2q3.42-2.19,3.42-5.55V495.64Z" transform="translate(-174.86 -433.2)"/><path class="cls-1" d="M466.93,552.33H501.8a3.52,3.52,0,0,0,2.58-.9,5.78,5.78,0,0,0,1.35-2.13,8.88,8.88,0,0,0,.52-2.71c0-1,.06-1.87.06-2.65v-3.23H487.07a25.82,25.82,0,0,1-10-2.07,27,27,0,0,1-9-6.13,31.84,31.84,0,0,1-6.52-9.94,34,34,0,0,1-2.52-13.5v-8.26a33.75,33.75,0,0,1,1.55-10.2,25.14,25.14,0,0,1,4.78-8.72,23.45,23.45,0,0,1,8.33-6.13,28.88,28.88,0,0,1,12.07-2.33h29.83a8.29,8.29,0,0,1,5.17,1.49q1.94,1.49,1.94,4.84V549a15.09,15.09,0,0,1-1.36,5.87,21.55,21.55,0,0,1-3.68,5.81,20.55,20.55,0,0,1-5.42,4.39,13.19,13.19,0,0,1-6.59,1.75H466.93a1.14,1.14,0,0,1-1.29-1.29V553.63A1.14,1.14,0,0,1,466.93,552.33Zm10.39-37.06a12.15,12.15,0,0,0,3.3,5.43,14.08,14.08,0,0,0,6.26,3.22,39.66,39.66,0,0,0,9.88,1H505a1.14,1.14,0,0,0,1.29-1.29V490.48a1.14,1.14,0,0,0-1.29-1.29H488.11q-6.19,0-9,4t-2.77,11v3.35A27.38,27.38,0,0,0,477.32,515.27Z" transform="translate(-174.86 -433.2)"/><path class="cls-1" d="M534,525h35.51a5.9,5.9,0,0,0,2.84-.58,4.58,4.58,0,0,0,1.62-1.49,4.8,4.8,0,0,0,.71-2,18.72,18.72,0,0,0,.13-2,7.46,7.46,0,0,0-.84-3.36c-.56-1.12-1.7-1.68-3.43-1.68H550.22a18.79,18.79,0,0,1-7.88-1.48,12.93,12.93,0,0,1-5.16-4.14,17.69,17.69,0,0,1-2.84-6.32,33.51,33.51,0,0,1-.91-8.07,30.61,30.61,0,0,1,1.49-10.46,12.91,12.91,0,0,1,4.52-6.2,18.08,18.08,0,0,1,7.75-3,70.23,70.23,0,0,1,11.29-.78h27.9a1.15,1.15,0,0,1,1.29,1.3V487.9a1.14,1.14,0,0,1-1.29,1.29H552.54a3.22,3.22,0,0,0-3,1.48,6.24,6.24,0,0,0-.9,3.3,6.6,6.6,0,0,0,1,3.35,3.13,3.13,0,0,0,2.9,1.68H571.4a30,30,0,0,1,8.65,1.1,12.42,12.42,0,0,1,5.88,3.68,16.58,16.58,0,0,1,3.35,7,47.75,47.75,0,0,1,1.1,11.17,29.37,29.37,0,0,1-.58,5.1,22.81,22.81,0,0,1-2.13,6.2,15.83,15.83,0,0,1-4.33,5.23,11.22,11.22,0,0,1-7.16,2.19H534a1.14,1.14,0,0,1-1.29-1.29V526.25A1.14,1.14,0,0,1,534,525Z" transform="translate(-174.86 -433.2)"/><path class="cls-1" d="M604.07,473.43h36.41a15.46,15.46,0,0,1,8.33,2.13,17.46,17.46,0,0,1,5.56,5.49,24.33,24.33,0,0,1,3.1,7.49,36.46,36.46,0,0,1,1,8.27v42.61a1.14,1.14,0,0,1-1.29,1.29H612.07a8.64,8.64,0,0,1-6.32-2.39,16.71,16.71,0,0,1-3.81-5.61,28.15,28.15,0,0,1-1.88-6.46,27.47,27.47,0,0,1,.26-11.75,25.89,25.89,0,0,1,2.46-6.91,17.21,17.21,0,0,1,4.39-5.36,10.14,10.14,0,0,1,6.58-2.19h21.57a8.28,8.28,0,0,0,5.36-1.62,4.79,4.79,0,0,0,2-3.81,6.23,6.23,0,0,0-1.29-3.62,4,4,0,0,0-3.36-1.8h-34a1.14,1.14,0,0,1-1.29-1.29V474.73A1.15,1.15,0,0,1,604.07,473.43Zm37.32,52.17a1.14,1.14,0,0,0,1.29-1.29v-7.75a1.14,1.14,0,0,0-1.29-1.29h-23a3.63,3.63,0,0,0-3,1.49,5.24,5.24,0,0,0-1.16,3.29,6.14,6.14,0,0,0,1.29,3.87,4.31,4.31,0,0,0,3.62,1.68Z" transform="translate(-174.86 -433.2)"/><path class="cls-1" d="M670.06,448.12h13.17a1.14,1.14,0,0,1,1.29,1.29v90a1.14,1.14,0,0,1-1.29,1.29H670.06a1.14,1.14,0,0,1-1.3-1.29v-90A1.15,1.15,0,0,1,670.06,448.12Z" transform="translate(-174.86 -433.2)"/><path class="cls-1" d="M708,515.92a6.45,6.45,0,0,0,1,3.55,10.26,10.26,0,0,0,2.78,2.84,13.81,13.81,0,0,0,4.2,1.94,18.54,18.54,0,0,0,5.16.71h30.74a1.14,1.14,0,0,1,1.29,1.29v13.17a1.14,1.14,0,0,1-1.29,1.29H730.1A76.59,76.59,0,0,1,712,538.9a27.31,27.31,0,0,1-11.75-5.74,21.54,21.54,0,0,1-6.33-10A49.84,49.84,0,0,1,692,508.56q0-10.33,3.16-17.11a28.92,28.92,0,0,1,8.27-10.79,30.66,30.66,0,0,1,11.49-5.61,52.08,52.08,0,0,1,12.85-1.62,45.16,45.16,0,0,1,13.81,1.88,25.59,25.59,0,0,1,9.56,5.29,20.25,20.25,0,0,1,5.49,8.33,32.66,32.66,0,0,1,1.74,11v13.44a1.14,1.14,0,0,1-1.29,1.29H709.31A1.14,1.14,0,0,0,708,515.92Zm34.48-16.4a1.14,1.14,0,0,0,1.29-1.29,8.92,8.92,0,0,0-4.52-7.82q-4.51-2.9-12.66-2.9a24.65,24.65,0,0,0-5.74.77,33.33,33.33,0,0,0-6.07,2.13,16.28,16.28,0,0,0-4.84,3.36,6.29,6.29,0,0,0-1.94,4.46,1.14,1.14,0,0,0,1.29,1.29Z" transform="translate(-174.86 -433.2)"/><path class="cls-1" d="M768.71,525h35.51a5.9,5.9,0,0,0,2.84-.58,4.58,4.58,0,0,0,1.62-1.49,4.66,4.66,0,0,0,.71-2,18.72,18.72,0,0,0,.13-2,7.46,7.46,0,0,0-.84-3.36q-.84-1.68-3.42-1.68H785a18.74,18.74,0,0,1-7.87-1.48,12.9,12.9,0,0,1-5.17-4.14,17.69,17.69,0,0,1-2.84-6.32,34,34,0,0,1-.91-8.07,30.61,30.61,0,0,1,1.49-10.46,13,13,0,0,1,4.52-6.2,18.08,18.08,0,0,1,7.75-3,70.37,70.37,0,0,1,11.3-.78h27.89a1.15,1.15,0,0,1,1.29,1.3V487.9a1.14,1.14,0,0,1-1.29,1.29H787.31a3.2,3.2,0,0,0-3,1.48,6.16,6.16,0,0,0-.91,3.3,6.7,6.7,0,0,0,1,3.35,3.16,3.16,0,0,0,2.91,1.68h18.85a30,30,0,0,1,8.65,1.1,12.42,12.42,0,0,1,5.88,3.68,16.7,16.7,0,0,1,3.36,7A47.81,47.81,0,0,1,825.14,522a29.37,29.37,0,0,1-.58,5.1,22.81,22.81,0,0,1-2.13,6.2,15.79,15.79,0,0,1-4.32,5.23,11.27,11.27,0,0,1-7.17,2.19H768.71a1.14,1.14,0,0,1-1.29-1.29V526.25A1.14,1.14,0,0,1,768.71,525Z" transform="translate(-174.86 -433.2)"/><path class="cls-2" d="M305.63,515q0,15.39-2.69,25.39t-8.21,15.89a29.1,29.1,0,0,1-14,8.21,77.7,77.7,0,0,1-20.26,2.31H214.86q-11.81,0-19.49-4.23a35,35,0,0,1-12.31-11,42.57,42.57,0,0,1-6.41-15.39,85.27,85.27,0,0,1-1.79-17.56V473.46a41.68,41.68,0,0,1,3.2-16.67,39.24,39.24,0,0,1,8.59-12.69A37.26,37.26,0,0,1,199.34,436a42.78,42.78,0,0,1,15.52-2.82h51.79a40.69,40.69,0,0,1,14,2.57,37.69,37.69,0,0,1,12.56,7.56,39.62,39.62,0,0,1,9,12.05,36.52,36.52,0,0,1,3.46,16.29Z" transform="translate(-174.86 -433.2)"/><path class="cls-3" d="M269.6,464.65v-9.29a14.08,14.08,0,0,0-14.07-14.07H225a14.08,14.08,0,0,0-14.07,14.07v9.29H190.32v65.89a19,19,0,0,0,19,19h61.93a19,19,0,0,0,19-19V464.65Zm-53.71-9.29a9.08,9.08,0,0,1,9.07-9.07h30.57a9.08,9.08,0,0,1,9.07,9.07v9.29H215.89Z" transform="translate(-174.86 -433.2)"/><path class="cls-2" d="M262.21,526.66l-3.77-1.7-11.83-5.34V525h-9.12c-1.16,0-1.74-.34-1.74-1a2.41,2.41,0,0,1,1.1-1.68l35.46-29.06a9.82,9.82,0,0,0,2.68-3.35,10.51,10.51,0,0,0,.95-4.65q0-5.94-3.47-8.85c-2.32-1.94-6.56-2.9-12.76-2.9H208c-1.05,0-1.58.43-1.58,1.29V487.9c0,.86.53,1.29,1.58,1.29h35.92c1.8,0,2.69.39,2.69,1.16a1.5,1.5,0,0,1-.64,1.17l-36.4,29.7a17.11,17.11,0,0,0-3.7,4.06,8.49,8.49,0,0,0-1.34,4.59,9.38,9.38,0,0,0,3.86,7.94q3.85,2.91,13.79,2.91h24.41v5.34l11.82-5.34,3.78-1.71,13.09-5.92.58-.26-.58-.26Z" transform="translate(-174.86 -433.2)"/></svg>