<svg id="Layer_1" data-name="Layer 1" xmlns="http://www.w3.org/2000/svg" viewBox="0 0 679.37 152"><defs><style>.cls-1{fill:#00161c;}.cls-2{fill:#2d4ab6;}.cls-3{fill:#fff;}</style></defs><path class="cls-1" d="M162.37,540.32q-8.13,0-11.3-2.9a10.25,10.25,0,0,1-3.16-7.94,9.78,9.78,0,0,1,1.1-4.59,16.33,16.33,0,0,1,3-4.06l29.83-29.71a1.62,1.62,0,0,0,.52-1.16c0-.77-.74-1.16-2.2-1.16H150.75a1.14,1.14,0,0,1-1.29-1.29V474.34a1.14,1.14,0,0,1,1.29-1.29H193.1q7.62,0,10.46,2.9t2.85,8.85a12.41,12.41,0,0,1-.78,4.64,9.88,9.88,0,0,1-2.19,3.36l-29.06,29.06a2.51,2.51,0,0,0-.9,1.68c0,.69.47,1,1.42,1h29.7a1.14,1.14,0,0,1,1.29,1.29V539a1.14,1.14,0,0,1-1.29,1.29Z" transform="translate(-147.91 -414.58)"/><path class="cls-1" d="M279,514.24A49.93,49.93,0,0,1,277.62,527a18.53,18.53,0,0,1-4.13,8,14.66,14.66,0,0,1-7,4.13,38.92,38.92,0,0,1-10.2,1.16h-23a20.2,20.2,0,0,1-9.82-2.13,17.63,17.63,0,0,1-6.2-5.55,21.52,21.52,0,0,1-3.23-7.75,43.25,43.25,0,0,1-.9-8.84V493.32a20.89,20.89,0,0,1,1.62-8.39,19.64,19.64,0,0,1,4.32-6.4,18.65,18.65,0,0,1,6.39-4.06,21.49,21.49,0,0,1,7.82-1.42h26.08a20.55,20.55,0,0,1,7,1.29,19.13,19.13,0,0,1,6.33,3.81,20.11,20.11,0,0,1,4.52,6.07,18.39,18.39,0,0,1,1.74,8.2Zm-15.88-19a4.4,4.4,0,0,0-1-2.78,8.09,8.09,0,0,0-2.52-2.07,12.1,12.1,0,0,0-3.49-1.22,19.54,19.54,0,0,0-3.87-.39H238.17a18,18,0,0,0-3.35.32,9.82,9.82,0,0,0-3,1.1,7,7,0,0,0-2.26,2.07,5.27,5.27,0,0,0-.9,3.1v20.66a7.66,7.66,0,0,0,1.09,4.26,8.27,8.27,0,0,0,2.78,2.65,11,11,0,0,0,3.62,1.29,22.55,22.55,0,0,0,3.61.32H251.6a14.56,14.56,0,0,0,8.07-2.2c2.28-1.46,3.43-3.31,3.43-5.55V495.26Z" transform="translate(-147.91 -414.58)"/><path class="cls-1" d="M295,552h34.87a3.51,3.51,0,0,0,2.58-.91,5.78,5.78,0,0,0,1.35-2.13,8.59,8.59,0,0,0,.52-2.71c0-1,.07-1.87.07-2.65v-3.23H315.14a25.81,25.81,0,0,1-10-2.06,27,27,0,0,1-9-6.14,31.84,31.84,0,0,1-6.52-9.94,33.92,33.92,0,0,1-2.52-13.49v-8.27a33.75,33.75,0,0,1,1.55-10.2,25.14,25.14,0,0,1,4.78-8.72,23.57,23.57,0,0,1,8.33-6.13,28.91,28.91,0,0,1,12.07-2.32h29.83a8.27,8.27,0,0,1,5.17,1.48c1.29,1,1.94,2.61,1.94,4.84v69.22a15.05,15.05,0,0,1-1.36,5.87,21.55,21.55,0,0,1-3.68,5.81,20.78,20.78,0,0,1-5.42,4.4,13.29,13.29,0,0,1-6.59,1.74H295a1.14,1.14,0,0,1-1.29-1.29V553.24A1.14,1.14,0,0,1,295,552Zm10.4-37.07a12,12,0,0,0,3.29,5.43,14.19,14.19,0,0,0,6.26,3.23,39.71,39.71,0,0,0,9.88,1h8.27a1.14,1.14,0,0,0,1.29-1.29V490.09a1.14,1.14,0,0,0-1.29-1.29H316.17q-6.19,0-9,4t-2.77,11v3.36A27,27,0,0,0,305.39,514.88Z" transform="translate(-147.91 -414.58)"/><path class="cls-1" d="M362,524.57h35.51a5.78,5.78,0,0,0,2.84-.58A4.49,4.49,0,0,0,402,522.5a4.66,4.66,0,0,0,.71-2,18.72,18.72,0,0,0,.13-2,7.46,7.46,0,0,0-.84-3.36q-.84-1.68-3.42-1.68H378.28A18.82,18.82,0,0,1,370.4,512a13,13,0,0,1-5.16-4.13,17.82,17.82,0,0,1-2.84-6.33,33.39,33.39,0,0,1-.91-8.07A30.61,30.61,0,0,1,363,483a13,13,0,0,1,4.52-6.2,18.08,18.08,0,0,1,7.75-3,70.48,70.48,0,0,1,11.3-.77h27.89a1.14,1.14,0,0,1,1.29,1.29v13.17a1.14,1.14,0,0,1-1.29,1.29H380.61a3.22,3.22,0,0,0-3,1.48,6.16,6.16,0,0,0-.91,3.3,6.64,6.64,0,0,0,1,3.36,3.16,3.16,0,0,0,2.91,1.67h18.85a30,30,0,0,1,8.65,1.1,12.42,12.42,0,0,1,5.88,3.68,16.58,16.58,0,0,1,3.35,7,47.22,47.22,0,0,1,1.1,11.17,29.37,29.37,0,0,1-.58,5.1,22.69,22.69,0,0,1-2.13,6.2,15.73,15.73,0,0,1-4.33,5.23,11.22,11.22,0,0,1-7.16,2.19H362a1.14,1.14,0,0,1-1.29-1.29V525.86A1.14,1.14,0,0,1,362,524.57Z" transform="translate(-147.91 -414.58)"/><path class="cls-1" d="M432.13,473.05h36.41a15.44,15.44,0,0,1,8.33,2.13,17.43,17.43,0,0,1,5.56,5.48,24.33,24.33,0,0,1,3.1,7.49,36.53,36.53,0,0,1,1,8.27V539a1.14,1.14,0,0,1-1.29,1.29H440.14a8.68,8.68,0,0,1-6.33-2.38,16.85,16.85,0,0,1-3.81-5.62,27.63,27.63,0,0,1-1.87-6.46,33.08,33.08,0,0,1-.52-4.91,34.5,34.5,0,0,1,.77-6.84,25.89,25.89,0,0,1,2.46-6.91,17.21,17.21,0,0,1,4.39-5.36,10.14,10.14,0,0,1,6.58-2.19h21.57a8.28,8.28,0,0,0,5.36-1.62,4.77,4.77,0,0,0,2-3.81,6.18,6.18,0,0,0-1.29-3.61,4,4,0,0,0-3.36-1.81h-34a1.14,1.14,0,0,1-1.29-1.29V474.34A1.14,1.14,0,0,1,432.13,473.05Zm37.32,52.17a1.14,1.14,0,0,0,1.29-1.3v-7.74a1.15,1.15,0,0,0-1.29-1.3h-23a3.63,3.63,0,0,0-3,1.49,5.24,5.24,0,0,0-1.16,3.29,6.19,6.19,0,0,0,1.29,3.88,4.31,4.31,0,0,0,3.62,1.68Z" transform="translate(-147.91 -414.58)"/><path class="cls-1" d="M498.12,447.74h13.17a1.14,1.14,0,0,1,1.29,1.29v90a1.14,1.14,0,0,1-1.29,1.29H498.12a1.14,1.14,0,0,1-1.29-1.29V449A1.14,1.14,0,0,1,498.12,447.74Z" transform="translate(-147.91 -414.58)"/><path class="cls-1" d="M536.08,515.53a6.43,6.43,0,0,0,1,3.55,10.26,10.26,0,0,0,2.78,2.84,13.81,13.81,0,0,0,4.2,1.94,18.54,18.54,0,0,0,5.16.71H580a1.14,1.14,0,0,1,1.29,1.29V539a1.14,1.14,0,0,1-1.29,1.29H558.16a77.17,77.17,0,0,1-18.14-1.8,27.32,27.32,0,0,1-11.75-5.75,21.54,21.54,0,0,1-6.33-10,49.79,49.79,0,0,1-1.87-14.59q0-10.34,3.16-17.11a28.89,28.89,0,0,1,8.27-10.78A30.53,30.53,0,0,1,543,474.66a52.07,52.07,0,0,1,12.85-1.61,45.3,45.3,0,0,1,13.82,1.87,25.62,25.62,0,0,1,9.55,5.29,20.25,20.25,0,0,1,5.49,8.33,32.68,32.68,0,0,1,1.74,11V513a1.14,1.14,0,0,1-1.29,1.29H537.37A1.14,1.14,0,0,0,536.08,515.53Zm34.48-16.4a1.14,1.14,0,0,0,1.29-1.29,8.89,8.89,0,0,0-4.52-7.81q-4.51-2.91-12.65-2.91a24.19,24.19,0,0,0-5.75.78,31.88,31.88,0,0,0-6.07,2.13,16.08,16.08,0,0,0-4.84,3.35,6.29,6.29,0,0,0-1.94,4.46,1.14,1.14,0,0,0,1.29,1.29Z" transform="translate(-147.91 -414.58)"/><path class="cls-1" d="M596.77,524.57h35.51a5.85,5.85,0,0,0,2.85-.58,4.54,4.54,0,0,0,1.61-1.49,4.66,4.66,0,0,0,.71-2,18.72,18.72,0,0,0,.13-2,7.46,7.46,0,0,0-.84-3.36q-.84-1.68-3.42-1.68H613a18.74,18.74,0,0,1-7.87-1.48,13,13,0,0,1-5.17-4.13,17.82,17.82,0,0,1-2.84-6.33,33.91,33.91,0,0,1-.9-8.07A30.63,30.63,0,0,1,597.74,483a13,13,0,0,1,4.52-6.2,18.13,18.13,0,0,1,7.75-3,70.48,70.48,0,0,1,11.3-.77H649.2a1.14,1.14,0,0,1,1.29,1.29v13.17a1.14,1.14,0,0,1-1.29,1.29H615.37a3.22,3.22,0,0,0-3,1.48,6.16,6.16,0,0,0-.91,3.3,6.74,6.74,0,0,0,1,3.36,3.17,3.17,0,0,0,2.91,1.67h18.85a30,30,0,0,1,8.65,1.1,12.42,12.42,0,0,1,5.88,3.68,16.7,16.7,0,0,1,3.36,7,47.81,47.81,0,0,1,1.09,11.17,29.37,29.37,0,0,1-.58,5.1,22,22,0,0,1-2.13,6.2,15.7,15.7,0,0,1-4.32,5.23,11.27,11.27,0,0,1-7.17,2.19H596.77a1.14,1.14,0,0,1-1.29-1.29V525.86A1.14,1.14,0,0,1,596.77,524.57Z" transform="translate(-147.91 -414.58)"/><path class="cls-2" d="M796,447.39V434.34c0-10.89-9.61-19.76-21.42-19.76H728c-11.81,0-21.42,8.87-21.42,19.76v13.05H675.27v92.55c0,14.71,12.93,26.64,28.87,26.64h94.27c15.94,0,28.86-11.93,28.86-26.64V447.39ZM714.2,434.34c0-7,6.19-12.74,13.81-12.74h46.53c7.62,0,13.81,5.72,13.81,12.74v13.05H714.2Z" transform="translate(-147.91 -414.58)"/><path class="cls-3" d="M777.86,526.91l-4.75-2-14.88-6.2v6.2H746.74c-1.46,0-2.18-.4-2.18-1.2q0-.9,1.38-2L790.57,488a11.54,11.54,0,0,0,3.37-3.89,11.39,11.39,0,0,0,1.19-5.4q0-6.88-4.36-10.27c-2.92-2.26-8.26-3.37-16.06-3.37H709.65q-2,0-2,1.5V481.9q0,1.5,2,1.5h45.22c2.25,0,3.37.45,3.37,1.35a1.72,1.72,0,0,1-.79,1.36L711.64,520.6a20.09,20.09,0,0,0-4.66,4.71,9.33,9.33,0,0,0-1.69,5.33,10.64,10.64,0,0,0,4.86,9.22q4.86,3.39,17.35,3.38h30.73v6.2l14.87-6.2,4.76-2,16.47-6.88.73-.3-.73-.3Z" transform="translate(-147.91 -414.58)"/></svg>