<?xml version="1.0" encoding="utf-8"?>
<!-- Generator: Adobe Illustrator 24.3.0, SVG Export Plug-In . SVG Version: 6.00 Build 0)  -->
<svg version="1.1" id="Layer_1" xmlns="http://www.w3.org/2000/svg" xmlns:xlink="http://www.w3.org/1999/xlink" x="0px" y="0px"
	 viewBox="0 0 650.3 133.6" style="enable-background:new 0 0 650.3 133.6;" xml:space="preserve">
<style type="text/css">
	.st0{fill:#FFFFFF;}
	.st1{fill:#00161C;}
</style>
<g>
	<g>
		<path class="st0" d="M159.5,107.5c-5.4,0-9.2-1-11.3-2.9c-2.1-1.9-3.2-4.6-3.2-7.9c0-1.6,0.4-3.2,1.1-4.6c0.7-1.4,1.7-2.8,3-4.1
			L179,58.3c0.3-0.3,0.5-0.7,0.5-1.2c0-0.8-0.7-1.2-2.2-1.2h-29.4c-0.9,0-1.3-0.4-1.3-1.3V41.5c0-0.9,0.4-1.3,1.3-1.3h42.4
			c5.1,0,8.6,1,10.5,2.9c1.9,1.9,2.8,4.9,2.8,8.9c0,1.8-0.3,3.4-0.8,4.6c-0.5,1.3-1.2,2.4-2.2,3.4l-29.1,29.1
			c-0.6,0.6-0.9,1.2-0.9,1.7c0,0.7,0.5,1,1.4,1h29.7c0.9,0,1.3,0.4,1.3,1.3v13.2c0,0.9-0.4,1.3-1.3,1.3L159.5,107.5L159.5,107.5z"/>
		<path class="st0" d="M276.1,81.4c0,5.2-0.5,9.4-1.4,12.8s-2.3,6-4.1,8c-1.9,2-4.2,3.4-7,4.1c-2.8,0.8-6.2,1.2-10.2,1.2h-23
			c-4,0-7.2-0.7-9.8-2.1s-4.6-3.3-6.2-5.5c-1.5-2.3-2.6-4.9-3.2-7.8c-0.6-2.9-0.9-5.8-0.9-8.8V60.5c0-3.1,0.5-5.9,1.6-8.4
			c1.1-2.5,2.5-4.6,4.3-6.4s3.9-3.1,6.4-4.1s5.1-1.4,7.8-1.4h26.1c2.3,0,4.7,0.4,7,1.3c2.4,0.9,4.5,2.1,6.3,3.8
			c1.9,1.7,3.4,3.7,4.5,6.1c1.2,2.4,1.7,5.1,1.7,8.2L276.1,81.4L276.1,81.4z M260.2,62.4c0-1-0.3-2-1-2.8c-0.6-0.8-1.5-1.5-2.5-2.1
			c-1-0.6-2.2-1-3.5-1.2c-1.3-0.3-2.6-0.4-3.9-0.4h-14.1c-1.1,0-2.2,0.1-3.4,0.3c-1.1,0.2-2.1,0.6-3,1.1c-0.9,0.5-1.7,1.2-2.3,2.1
			c-0.6,0.9-0.9,1.9-0.9,3.1v20.7c0,1.7,0.4,3.1,1.1,4.3s1.7,2,2.8,2.7c1.1,0.6,2.3,1.1,3.6,1.3c1.3,0.2,2.5,0.3,3.6,0.3h11.9
			c3.1,0,5.8-0.7,8.1-2.2c2.3-1.5,3.4-3.3,3.4-5.5V73.6L260.2,62.4L260.2,62.4z"/>
		<path class="st0" d="M292.1,119.1h34.9c1.1,0,2-0.3,2.6-0.9c0.6-0.6,1-1.3,1.4-2.1c0.3-0.8,0.5-1.7,0.5-2.7c0-1,0.1-1.9,0.1-2.7
			v-3.2h-19.2c-3.4,0-6.7-0.7-10-2.1c-3.3-1.4-6.3-3.4-9-6.1c-2.7-2.7-4.8-6-6.5-9.9c-1.7-3.9-2.5-8.4-2.5-13.5v-8.3
			c0-3.5,0.5-6.9,1.5-10.2c1-3.3,2.6-6.2,4.8-8.7c2.2-2.5,4.9-4.6,8.3-6.1c3.4-1.5,7.4-2.3,12.1-2.3h29.8c2.2,0,3.9,0.5,5.2,1.5
			c1.3,1,1.9,2.6,1.9,4.8v69.2c0,1.8-0.5,3.8-1.4,5.9c-0.9,2.1-2.1,4-3.7,5.8c-1.5,1.8-3.4,3.2-5.4,4.4s-4.3,1.7-6.6,1.7h-38.7
			c-0.9,0-1.3-0.4-1.3-1.3v-11.9C290.8,119.5,291.2,119.1,292.1,119.1z M302.5,82.1c0.7,2.2,1.7,4,3.3,5.4c1.5,1.5,3.6,2.5,6.3,3.2
			s5.9,1,9.9,1h8.3c0.9,0,1.3-0.4,1.3-1.3V57.3c0-0.9-0.4-1.3-1.3-1.3h-16.9c-4.1,0-7.1,1.3-9,4c-1.9,2.7-2.8,6.3-2.8,11v3.4
			C301.5,77.3,301.8,79.9,302.5,82.1z"/>
		<path class="st0" d="M359.1,91.8h35.5c1.2,0,2.2-0.2,2.8-0.6s1.2-0.9,1.6-1.5c0.4-0.6,0.6-1.3,0.7-2c0.1-0.7,0.1-1.4,0.1-2
			c0-1.1-0.3-2.2-0.8-3.4s-1.7-1.7-3.4-1.7h-20.3c-3.1,0-5.7-0.5-7.9-1.5s-3.9-2.4-5.2-4.1c-1.3-1.8-2.2-3.9-2.8-6.3
			c-0.6-2.5-0.9-5.1-0.9-8.1c0-4.3,0.5-7.8,1.5-10.5c1-2.7,2.5-4.7,4.5-6.2c2-1.5,4.6-2.5,7.8-3c3.1-0.5,6.9-0.8,11.3-0.8h27.9
			c0.9,0,1.3,0.4,1.3,1.3v13.2c0,0.9-0.4,1.3-1.3,1.3h-33.8c-1.4,0-2.4,0.5-3,1.5c-0.6,1-0.9,2.1-0.9,3.3c0,1.1,0.3,2.2,1,3.4
			c0.7,1.1,1.6,1.7,2.9,1.7h18.8c3.4,0,6.2,0.4,8.7,1.1c2.4,0.7,4.4,2,5.9,3.7c1.5,1.7,2.6,4.1,3.4,7c0.7,3,1.1,6.7,1.1,11.2
			c0,1.3-0.2,3-0.6,5.1s-1.1,4.2-2.1,6.2s-2.5,3.8-4.3,5.2c-1.8,1.5-4.2,2.2-7.2,2.2h-42.2c-0.9,0-1.3-0.4-1.3-1.3V93.1
			C357.8,92.2,358.2,91.8,359.1,91.8z"/>
		<path class="st0" d="M429.2,40.2h36.4c3.3,0,6,0.7,8.3,2.1s4.1,3.2,5.5,5.5s2.5,4.7,3.1,7.5c0.7,2.8,1,5.5,1,8.3v42.6
			c0,0.9-0.4,1.3-1.3,1.3h-45.1c-2.6,0-4.7-0.8-6.3-2.4c-1.6-1.6-2.9-3.5-3.8-5.6c-0.9-2.2-1.5-4.3-1.9-6.5
			c-0.3-2.2-0.5-3.8-0.5-4.9c0-2.1,0.3-4.3,0.8-6.8c0.5-2.5,1.3-4.8,2.5-6.9c1.1-2.1,2.6-3.9,4.4-5.4c1.8-1.5,4-2.2,6.6-2.2h21.6
			c2.2,0,4-0.5,5.4-1.6c1.3-1.1,2-2.3,2-3.8c0-1.2-0.4-2.4-1.3-3.6c-0.9-1.2-2-1.8-3.4-1.8h-34c-0.9,0-1.3-0.4-1.3-1.3V41.5
			C427.9,40.7,428.4,40.2,429.2,40.2z M466.5,92.4c0.9,0,1.3-0.4,1.3-1.3v-7.8c0-0.9-0.4-1.3-1.3-1.3h-23c-1.2,0-2.2,0.5-3,1.5
			c-0.8,1-1.2,2.1-1.2,3.3c0,1.5,0.4,2.8,1.3,3.9c0.9,1.1,2.1,1.7,3.6,1.7H466.5z"/>
		<path class="st0" d="M495.2,14.9h13.2c0.9,0,1.3,0.4,1.3,1.3v76.6V93v13.2c0,0.9-0.4,1.3-1.3,1.3h-13.2c-0.9,0-1.3-0.4-1.3-1.3V93
			v-0.3V16.2C493.9,15.3,494.3,14.9,495.2,14.9z"/>
		<path class="st0" d="M533.2,82.7c0,1.3,0.3,2.5,1,3.5s1.6,2,2.8,2.8s2.6,1.5,4.2,1.9c1.6,0.5,3.4,0.7,5.2,0.7h30.7
			c0.9,0,1.3,0.4,1.3,1.3v13.2c0,0.9-0.4,1.3-1.3,1.3h-21.8c-7.2,0-13.3-0.6-18.1-1.8s-8.8-3.1-11.8-5.8c-3-2.6-5.1-6-6.3-10
			c-1.2-4-1.9-8.9-1.9-14.6c0-6.9,1-12.6,3.2-17.1c2.1-4.5,4.9-8.1,8.3-10.8s7.2-4.5,11.5-5.6s8.5-1.6,12.8-1.6
			c5.3,0,9.9,0.6,13.8,1.9c3.9,1.2,7.1,3,9.6,5.3c2.5,2.3,4.3,5.1,5.5,8.3s1.7,6.9,1.7,11v13.4c0,0.9-0.4,1.3-1.3,1.3h-47.8
			C533.6,81.4,533.2,81.8,533.2,82.7z M567.6,66.3c0.9,0,1.3-0.4,1.3-1.3c0-3.3-1.5-5.9-4.5-7.8c-3-1.9-7.2-2.9-12.7-2.9
			c-1.7,0-3.6,0.3-5.8,0.8s-4.1,1.2-6.1,2.1s-3.5,2-4.8,3.4c-1.3,1.3-1.9,2.8-1.9,4.5c0,0.9,0.4,1.3,1.3,1.3L567.6,66.3L567.6,66.3z
			"/>
		<path class="st0" d="M593.9,91.8h35.5c1.2,0,2.2-0.2,2.8-0.6s1.2-0.9,1.6-1.5c0.4-0.6,0.6-1.3,0.7-2c0.1-0.7,0.1-1.4,0.1-2
			c0-1.1-0.3-2.2-0.8-3.4s-1.7-1.7-3.4-1.7h-20.3c-3.1,0-5.7-0.5-7.9-1.5s-3.9-2.4-5.2-4.1c-1.3-1.8-2.2-3.9-2.8-6.3
			c-0.6-2.5-0.9-5.1-0.9-8.1c0-4.3,0.5-7.8,1.5-10.5c1-2.7,2.5-4.7,4.5-6.2c2-1.5,4.6-2.5,7.8-3c3.1-0.5,6.9-0.8,11.3-0.8h27.9
			c0.9,0,1.3,0.4,1.3,1.3v13.2c0,0.9-0.4,1.3-1.3,1.3h-33.8c-1.4,0-2.4,0.5-3,1.5c-0.6,1-0.9,2.1-0.9,3.3c0,1.1,0.3,2.2,1,3.4
			c0.7,1.1,1.6,1.7,2.9,1.7h18.8c3.4,0,6.2,0.4,8.7,1.1c2.4,0.7,4.4,2,5.9,3.7c1.5,1.7,2.6,4.1,3.4,7c0.7,3,1.1,6.7,1.1,11.2
			c0,1.3-0.2,3-0.6,5.1s-1.1,4.2-2.1,6.2s-2.5,3.8-4.3,5.2c-1.8,1.5-4.2,2.2-7.2,2.2h-42.2c-0.9,0-1.3-0.4-1.3-1.3V93.1
			C592.6,92.2,593,91.8,593.9,91.8z"/>
	</g>
	<g>
		<path class="st0" d="M130.8,81.8c0,10.3-0.9,18.7-2.7,25.4c-1.8,6.7-4.5,12-8.2,15.9c-3.7,3.9-8.3,6.7-14,8.2
			c-5.6,1.5-12.4,2.3-20.3,2.3H40c-7.9,0-14.4-1.4-19.5-4.2s-9.2-6.5-12.3-11c-3.1-4.5-5.2-9.7-6.4-15.4C0.6,97.2,0,91.4,0,85.4
			V40.3c0-6.1,1.1-11.7,3.2-16.7c2.1-5,5-9.2,8.6-12.7s7.8-6.2,12.7-8.1C29.4,0.9,34.5,0,40,0h51.8c4.6,0,9.3,0.9,14,2.6
			c4.7,1.7,8.9,4.2,12.6,7.6c3.7,3.3,6.7,7.4,9,12c2.3,4.7,3.5,10.1,3.5,16.3L130.8,81.8L130.8,81.8z"/>
	</g>
	<path class="st1" d="M94.7,31.4v-9.3c0-7.8-6.3-14.1-14.1-14.1H50.1C42.3,8.1,36,14.4,36,22.1v9.3H15.5v65.9c0,10.5,8.5,19,19,19
		h61.9c10.5,0,19-8.5,19-19V31.4L94.7,31.4L94.7,31.4z M41,22.1c0-5,4.1-9.1,9.1-9.1h30.6c5,0,9.1,4.1,9.1,9.1v9.3H41L41,22.1
		L41,22.1z"/>
	<path class="st0" d="M87.4,93.4l-3.8-1.7l-11.8-5.3v5.3h-9.1c-1.2,0-1.7-0.3-1.7-1c0-0.5,0.4-1.1,1.1-1.7L97.5,60
		c1.2-0.9,2-2.1,2.7-3.4c0.6-1.3,1-2.8,1-4.6c0-4-1.2-6.9-3.5-8.9c-2.3-1.9-6.6-2.9-12.8-2.9H33.2c-1.1,0-1.6,0.4-1.6,1.3v13.2
		c0,0.9,0.5,1.3,1.6,1.3h35.9c1.8,0,2.7,0.4,2.7,1.2c0,0.4-0.2,0.8-0.6,1.2L34.7,88c-1.6,1.3-2.8,2.6-3.7,4.1s-1.3,3-1.3,4.6
		c0,3.4,1.3,6,3.9,7.9c2.6,1.9,7.2,2.9,13.8,2.9h24.4v5.3l11.8-5.3l3.8-1.7l13.1-5.9l0.6-0.3l-0.6-0.3L87.4,93.4z"/>
</g>
</svg>
