<?xml version="1.0" encoding="utf-8"?>
<!-- Svg Vector Icons : http://www.onlinewebfonts.com/icon -->
<!DOCTYPE svg PUBLIC "-//W3C//DTD SVG 1.1//EN" "http://www.w3.org/Graphics/SVG/1.1/DTD/svg11.dtd">
<svg version="1.1" xmlns="http://www.w3.org/2000/svg" xmlns:xlink="http://www.w3.org/1999/xlink" x="0px" y="0px" viewBox="0 0 1000 1000" enable-background="new 0 0 1000 1000" xml:space="preserve">
<metadata> Svg Vector Icons : http://www.onlinewebfonts.com/icon </metadata>
<g><g transform="translate(0.000000,512.000000) scale(0.100000,-0.100000)"><path d="M4622,5017.4c-1004.1-103.5-1826.2-415.8-2590.8-986.9c-241.5-180.1-762.7-701.4-942.8-942.8C569,2390.1,250.9,1614,124.4,726.8c-32.6-226.1-32.6-981.1,0-1207.3c126.5-889.2,446.5-1672.9,965.8-2360.9c180.1-239.5,546.1-619,795.3-824c986.9-812.5,2286.2-1214.9,3541.3-1098c1502.4,141.8,2832.3,939,3673.6,2203.7c272.1,410.1,525.1,986.9,647.7,1475.6C9903.3-469,9941.6,219,9853.5,813c-40.2,274-151.4,712.9-243.4,967.7c-172.5,479.1-517.4,1082.7-829.8,1452.6c-69,82.4-122.7,161-118.8,172.5c11.5,30.7-350.7,396.7-381.3,383.3c-13.4-3.8-78.6,36.4-145.7,93.9c-412,346.8-950.5,661.1-1460.2,848.9c-247.2,92-710.9,207-988.8,249.1C5474.8,5011.6,4796.4,5034.6,4622,5017.4z M5637.6,4367.8c597.9-92,1186.2-318.1,1684.4-642c207-136.1,490.6-354.5,490.6-379.4c0-7.7-170.6-184-377.5-390.9L7055.7,2576H4735.1c-2659.8,0-2451,13.4-2634.9-170.6c-182.1-182-170.6-57.5-170.6-1987.2c0-1638.4,0-1674.8,38.3-1778.3c49.8-128.4,162.9-249.1,293.2-310.4c80.5-36.4,130.3-46,262.5-46h162.9l-182.1-184c-99.7-99.6-316.2-312.4-481-469.5l-300.9-285.5l-95.8,120.7c-258.7,323.9-515.5,781.8-663,1188.1C524.9-158.5,651.4,1203.9,1302.9,2313.5c233.8,394.8,626.6,850.8,981.2,1138.3c642,519.3,1466,860.4,2280.4,942.8C4802.1,4419.5,5405.8,4404.2,5637.6,4367.8z M8406.7,2719.7c440.8-580.6,701.4-1186.2,827.9-1925.9c55.6-321.9,59.4-954.3,9.6-1283.9c-115-737.8-377.5-1374-816.4-1964.2c-182.1-245.3-609.4-672.6-854.7-854.7c-588.3-436.9-1234.1-703.3-1964.2-816.4c-308.5-47.9-946.6-46-1236,1.9c-827.8,136.1-1536.9,456.1-2134.8,962l-115,99.7l185.9,159c101.6,88.2,408.2,377.5,678.4,645.8l490.6,488.7l1157.5-720.5l1155.5-720.5l5.7,745.5l3.8,747.4h916h914.1l97.7,46c120.7,55.6,230,162.9,283.6,277.9c40.2,88.2,40.2,101.6,46,1780.2c1.9,1080.8-1.9,1718.9-15.3,1763c-26.8,107.3-122.7,245.3-208.9,304.7l-76.7,53.7l224.2,224.2C8240,2993.8,8197.8,2995.7,8406.7,2719.7z M5992.2,1535.5C5754.6,1301.7,5055.1,611.8,4438,2.4l-1123-1105.7H2928h-385.2v1533v1533H4484h1939.3L5992.2,1535.5z M7448.6,429.8v-1533H6317.9H5187.3v-500.2c0-283.6-7.6-496.3-17.2-492.5c-9.6,3.8-293.2,178.2-632.4,389l-615.1,383.3L5564.8,318.6L7209,1962.8h118.8h120.7V429.8z"/></g></g>
</svg>